<?xml version="1.0" encoding="UTF-8"?>
<svg viewBox="0 0 164 22" xmlns="http://www.w3.org/2000/svg">
<path d="m41.154 20.839c-0.2455 0-0.4604-0.0827-0.6445-0.2481-0.1688-0.1804-0.2533-0.3909-0.2533-0.6314v-15.854c0-0.25559 0.0845-0.46607 0.2533-0.63146 0.1688-0.16538 0.3836-0.24807 0.6445-0.24807h10.796c0.2609 0 0.4757 0.08269 0.6445 0.24807 0.1688 0.15035 0.2532 0.35332 0.2532 0.60891 0 0.22552-0.0844 0.42097-0.2532 0.58636-0.1688 0.16538-0.3836 0.24807-0.6445 0.24807h-9.8983v6.2244h7.205c0.2609 0 0.4758 0.0827 0.6446 0.2481s0.2532 0.3683 0.2532 0.6089c0 0.2405-0.0844 0.4435-0.2532 0.6089s-0.3837 0.2481-0.6446 0.2481h-7.205v7.1039c0 0.2405-0.0844 0.451-0.2533 0.6314-0.1688 0.1654-0.3836 0.2481-0.6445 0.2481z" fill="#606368"/>
<path d="m58.212 20.839c-0.6139 0-1.1664-0.1654-1.6574-0.4961-0.4758-0.3308-0.8517-0.7894-1.128-1.3757-0.2609-0.5864-0.3913-1.2629-0.3913-2.0297v-12.855c0-0.25559 0.0767-0.45856 0.2302-0.60891 0.1688-0.16538 0.3836-0.24807 0.6445-0.24807s0.4681 0.08269 0.6215 0.24807c0.1689 0.15035 0.2533 0.35332 0.2533 0.60891v12.855c0 0.6465 0.1304 1.1727 0.3913 1.5786 0.2762 0.406 0.6215 0.609 1.0359 0.609h0.5754c0.2302 0 0.4144 0.0826 0.5525 0.248 0.1381 0.1504 0.2072 0.3533 0.2072 0.6089s-0.0998 0.4661-0.2993 0.6315c-0.1841 0.1503-0.4297 0.2255-0.7366 0.2255h-0.2992z" fill="#606368"/>
<path d="m66.497 20.952c-1.1817 0-2.2406-0.2707-3.1767-0.8119-0.9361-0.5563-1.6804-1.308-2.2329-2.2552-0.5371-0.9472-0.8057-2.0147-0.8057-3.2024 0-1.2028 0.2763-2.2778 0.8287-3.225 0.5678-0.9472 1.3351-1.6914 2.302-2.2326 0.9668-0.55629 2.0564-0.83443 3.2687-0.83443 1.2124 0 2.2943 0.27814 3.2457 0.83443 0.9669 0.54125 1.7265 1.2854 2.279 2.2326 0.5678 0.9472 0.8594 2.0222 0.8747 3.225l-0.7136 0.5412c0 1.0825-0.2609 2.0598-0.7827 2.9318-0.5064 0.857-1.2046 1.5411-2.0947 2.0523-0.8748 0.4961-1.8723 0.7442-2.9925 0.7442zm0.1841-1.5787c0.8901 0 1.6804-0.2029 2.371-0.6089 0.7059-0.4059 1.2584-0.9622 1.6574-1.6688 0.4144-0.7217 0.6215-1.5261 0.6215-2.4131 0-0.9021-0.2071-1.7065-0.6215-2.4131-0.399-0.7066-0.9515-1.2629-1.6574-1.6688-0.6906-0.421-1.4809-0.6315-2.371-0.6315-0.8747 0-1.6651 0.2105-2.371 0.6315-0.7059 0.4059-1.266 0.9622-1.6804 1.6688-0.4143 0.7066-0.6215 1.511-0.6215 2.4131 0 0.887 0.2072 1.6914 0.6215 2.4131 0.4144 0.7066 0.9745 1.2629 1.6804 1.6688 0.7059 0.406 1.4963 0.6089 2.371 0.6089zm5.5016 1.4659c-0.2608 0-0.4757-0.0752-0.6445-0.2255-0.1688-0.1654-0.2532-0.3759-0.2532-0.6315v-3.8564l0.4374-1.7816 1.3581 0.3383v5.2997c0 0.2556-0.0844 0.4661-0.2532 0.6315-0.1688 0.1503-0.3837 0.2255-0.6446 0.2255z" fill="#606368"/>
<path d="m80.58 20.952c-0.9054 0-1.8031-0.1504-2.6932-0.4511s-1.6114-0.7517-2.1638-1.3531c-0.1689-0.1804-0.2379-0.3834-0.2072-0.6089s0.1458-0.421 0.3453-0.5864c0.2148-0.1503 0.4373-0.2104 0.6675-0.1804 0.2302 0.0301 0.4221 0.1278 0.5755 0.2932 0.3683 0.421 0.8517 0.7442 1.4502 0.9697 0.6139 0.2256 1.2891 0.3383 2.0257 0.3383 1.1357 0 1.9567-0.1879 2.4631-0.5638 0.5064-0.3909 0.7673-0.857 0.7827-1.3982 0-0.5413-0.2609-0.9848-0.7827-1.3306-0.5218-0.3608-1.3811-0.639-2.5782-0.8344-1.5499-0.2406-2.6855-0.6615-3.4068-1.2629s-1.0819-1.3156-1.0819-2.1425c0-0.7667 0.2071-1.4057 0.6215-1.9169 0.4143-0.51118 0.9668-0.89456 1.6574-1.1502s1.4502-0.38339 2.2789-0.38339c1.0282 0 1.9106 0.1729 2.6472 0.5187 0.752 0.3458 1.3582 0.81187 1.8186 1.3982 0.1534 0.1954 0.2148 0.3984 0.1841 0.6089s-0.1534 0.3834-0.3683 0.5187c-0.1841 0.1052-0.399 0.1428-0.6445 0.1127-0.2302-0.0451-0.4297-0.1578-0.5985-0.3382-0.3837-0.436-0.8287-0.7518-1.3352-0.9472-0.5064-0.2105-1.0895-0.31575-1.7494-0.31575-0.8441 0-1.5193 0.17285-2.0257 0.51865-0.5065 0.3308-0.7597 0.7518-0.7597 1.263 0 0.3458 0.0921 0.6465 0.2763 0.902 0.1995 0.2556 0.5294 0.4812 0.9898 0.6766 0.4757 0.1955 1.1356 0.3608 1.9796 0.4962 1.151 0.1804 2.0564 0.451 2.7163 0.8118 0.6753 0.3458 1.151 0.7593 1.4272 1.2404 0.2916 0.4661 0.4374 0.9773 0.4374 1.5335 0 0.7067-0.2148 1.3306-0.6445 1.8719-0.4144 0.5262-0.9975 0.9396-1.7495 1.2403-0.7366 0.3007-1.5883 0.4511-2.5552 0.4511z" fill="#606368"/>
<path d="m99.043 20.839c-0.2609 0-0.4757-0.0827-0.6445-0.2481-0.1688-0.1653-0.2532-0.3683-0.2532-0.6089v-5.8635c0-0.9322-0.1842-1.6989-0.5525-2.3003-0.353-0.6014-0.844-1.0525-1.4732-1.3532-0.6139-0.3007-1.3121-0.451-2.0948-0.451-0.752 0-1.4349 0.1428-2.0487 0.4285-0.5985 0.2857-1.0743 0.6766-1.4272 1.1727-0.353 0.4961-0.5295 1.0599-0.5295 1.6914h-1.266c0.0306-0.9472 0.2915-1.7891 0.7826-2.5258 0.4911-0.7518 1.1433-1.3381 1.9567-1.7591 0.8133-0.43601 1.7187-0.65401 2.7163-0.65401 1.0895 0 2.064 0.22552 2.9234 0.67656 0.8594 0.43601 1.5346 1.0825 2.0257 1.9394 0.5064 0.857 0.7597 1.9019 0.7597 3.1348v5.8635c0 0.2406-0.0844 0.4436-0.2533 0.6089-0.1688 0.1654-0.3759 0.2481-0.6215 0.2481zm-9.8983 0c-0.2762 0-0.4988-0.0752-0.6676-0.2255-0.1534-0.1654-0.2302-0.3759-0.2302-0.6315v-10.599c0-0.27062 0.0768-0.48111 0.2302-0.63146 0.1688-0.16538 0.3914-0.24807 0.6676-0.24807 0.2609 0 0.468 0.08269 0.6215 0.24807 0.1688 0.15035 0.2532 0.36084 0.2532 0.63146v10.599c0 0.2556-0.0844 0.4661-0.2532 0.6315-0.1535 0.1503-0.3606 0.2255-0.6215 0.2255zm0-5.0291c-0.2762 0-0.4988-0.0827-0.6676-0.2481-0.1534-0.1654-0.2302-0.3759-0.2302-0.6314v-10.825c0-0.27062 0.0768-0.48111 0.2302-0.63146 0.1688-0.16538 0.3914-0.24807 0.6676-0.24807 0.2609 0 0.468 0.08269 0.6215 0.24807 0.1688 0.15035 0.2532 0.36084 0.2532 0.63146v10.825c0 0.2555-0.0844 0.466-0.2532 0.6314-0.1535 0.1654-0.3606 0.2481-0.6215 0.2481z" fill="#606368"/>
<path d="m118.19 21.064c-1.243 0-2.409-0.233-3.498-0.6991-1.075-0.4661-2.026-1.1126-2.855-1.9395-0.813-0.8419-1.45-1.8041-1.911-2.8866-0.46-1.0976-0.69-2.2703-0.69-3.5182 0-1.2328 0.222-2.3905 0.667-3.473 0.461-1.0975 1.098-2.0598 1.911-2.8867 0.829-0.82691 1.78-1.4734 2.854-1.9395 1.09-0.48111 2.264-0.72167 3.522-0.72167 1.105 0 2.111 0.15786 3.016 0.47359s1.78 0.8194 2.624 1.511c0.138 0.10525 0.215 0.23304 0.23 0.38339 0.031 0.13531 0.016 0.27062-0.046 0.40594-0.061 0.12028-0.153 0.21048-0.276 0.27062-0.031 0.12028-0.107 0.21049-0.23 0.27063s-0.269 0.08269-0.437 0.06765c-0.154-0.01503-0.307-0.08269-0.461-0.20296-0.598-0.51119-1.251-0.88705-1.956-1.1276-0.706-0.25559-1.527-0.38338-2.464-0.38338-0.997 0-1.933 0.19545-2.808 0.58635-0.859 0.3909-1.619 0.92464-2.279 1.6012s-1.181 1.4584-1.565 2.3454c-0.368 0.88707-0.553 1.8267-0.553 2.819 0 1.0224 0.185 1.9771 0.553 2.8642 0.384 0.887 0.905 1.6688 1.565 2.3454 0.66 0.6765 1.42 1.2103 2.279 1.6012 0.875 0.3758 1.811 0.5638 2.808 0.5638 0.845 0 1.642-0.1353 2.394-0.406 0.752-0.2706 1.466-0.6615 2.141-1.1727 0.184-0.1503 0.376-0.2105 0.576-0.1804 0.215 0.0301 0.399 0.1203 0.552 0.2706 0.154 0.1504 0.23 0.3458 0.23 0.5864 0 0.1203-0.023 0.233-0.069 0.3383-0.03 0.0902-0.092 0.1879-0.184 0.2932-0.782 0.7066-1.657 1.2102-2.624 1.5109-0.967 0.2857-1.972 0.4285-3.016 0.4285z" fill="#606368"/>
<path d="m131.92 20.952c-1.181 0-2.24-0.2707-3.176-0.8119-0.937-0.5563-1.681-1.308-2.233-2.2552-0.537-0.9472-0.806-2.0147-0.806-3.2024 0-1.2028 0.276-2.2778 0.829-3.225 0.568-0.9472 1.335-1.6914 2.302-2.2326 0.966-0.55629 2.056-0.83443 3.268-0.83443 1.213 0 2.295 0.27814 3.246 0.83443 0.967 0.54125 1.727 1.2854 2.279 2.2326 0.568 0.9472 0.859 2.0222 0.875 3.225l-0.714 0.5412c0 1.0825-0.261 2.0598-0.782 2.9318-0.507 0.857-1.205 1.5411-2.095 2.0523-0.875 0.4961-1.872 0.7442-2.993 0.7442zm0.184-1.5787c0.89 0 1.681-0.2029 2.371-0.6089 0.706-0.4059 1.259-0.9622 1.658-1.6688 0.414-0.7217 0.621-1.5261 0.621-2.4131 0-0.9021-0.207-1.7065-0.621-2.4131-0.399-0.7066-0.952-1.2629-1.658-1.6688-0.69-0.421-1.481-0.6315-2.371-0.6315-0.874 0-1.665 0.2105-2.371 0.6315-0.706 0.4059-1.266 0.9622-1.68 1.6688s-0.622 1.511-0.622 2.4131c0 0.887 0.208 1.6914 0.622 2.4131 0.414 0.7066 0.974 1.2629 1.68 1.6688 0.706 0.406 1.497 0.6089 2.371 0.6089zm5.502 1.4659c-0.261 0-0.476-0.0752-0.645-0.2255-0.168-0.1654-0.253-0.3759-0.253-0.6315v-3.8564l0.438-1.7816 1.358 0.3383v5.2997c0 0.2556-0.085 0.4661-0.253 0.6315-0.169 0.1503-0.384 0.2255-0.645 0.2255z" fill="#606368"/>
<path d="m142.34 13.239c0.046-0.9322 0.292-1.7666 0.737-2.5033 0.46-0.73673 1.051-1.3156 1.773-1.7365 0.736-0.42098 1.55-0.63146 2.44-0.63146 0.706 0 1.25 0.09772 1.634 0.29318 0.384 0.19545 0.529 0.48111 0.437 0.85698-0.061 0.22552-0.168 0.37586-0.322 0.45104-0.138 0.0752-0.315 0.1052-0.529 0.0902-0.2-0.015-0.43-0.0301-0.691-0.0451-0.859-0.07517-1.627 0.015-2.302 0.2706-0.66 0.2406-1.189 0.6165-1.588 1.1276-0.384 0.5112-0.576 1.1201-0.576 1.8268h-1.013zm0.139 7.6c-0.277 0-0.492-0.0752-0.645-0.2255-0.153-0.1504-0.23-0.3608-0.23-0.6315v-10.622c0-0.27062 0.077-0.48111 0.23-0.63146s0.368-0.22552 0.645-0.22552c0.276 0 0.491 0.07517 0.644 0.22552 0.154 0.15035 0.23 0.36084 0.23 0.63146v10.622c0 0.2707-0.076 0.4811-0.23 0.6315-0.153 0.1503-0.368 0.2255-0.644 0.2255z" fill="#606368"/>
<path d="m156.61 20.952c-1.213 0-2.302-0.2707-3.269-0.8119-0.967-0.5563-1.734-1.308-2.302-2.2552-0.552-0.9472-0.829-2.0222-0.829-3.225 0-1.1877 0.269-2.2552 0.806-3.2024 0.553-0.9472 1.297-1.6914 2.233-2.2326 0.936-0.55629 1.995-0.83443 3.177-0.83443 1.028 0 1.956 0.218 2.785 0.65401 0.829 0.42097 1.496 0.98474 2.003 1.6914v-6.6304c0-0.27062 0.084-0.48111 0.253-0.63146 0.169-0.16538 0.384-0.24807 0.644-0.24807 0.261 0 0.476 0.08269 0.645 0.24807 0.169 0.15035 0.253 0.36084 0.253 0.63146v10.645c-0.031 1.1728-0.33 2.2327-0.898 3.1799-0.552 0.9321-1.312 1.6688-2.279 2.2101-0.951 0.5412-2.025 0.8119-3.222 0.8119zm0-1.5787c0.89 0 1.68-0.2029 2.371-0.6089 0.706-0.421 1.258-0.9848 1.657-1.6914 0.415-0.7066 0.622-1.511 0.622-2.4131 0-0.887-0.207-1.6839-0.622-2.3905-0.399-0.7217-0.951-1.2855-1.657-1.6914-0.691-0.4059-1.481-0.6089-2.371-0.6089-0.875 0-1.665 0.203-2.371 0.6089s-1.266 0.9697-1.681 1.6914c-0.414 0.7066-0.621 1.5035-0.621 2.3905 0 0.9021 0.207 1.7065 0.621 2.4131 0.415 0.7066 0.975 1.2704 1.681 1.6914 0.706 0.406 1.496 0.6089 2.371 0.6089z" fill="#606368"/>
<rect transform="rotate(-14 0 6.3999)" y="6.3999" width="25" height="15" rx="2" fill="#45C89A"/>
<rect y="6" width="25" height="15" rx="2" fill="#4C7DDE"/>
<circle cx="2.5" cy="8.5" r="1.5" fill="#fff"/>
</svg>
